<?xml version="1.0" encoding="utf-8"?>
<!-- Generator: Adobe Illustrator 22.1.0, SVG Export Plug-In . SVG Version: 6.00 Build 0)  -->
<!DOCTYPE svg PUBLIC "-//W3C//DTD SVG 1.1//EN" "http://www.w3.org/Graphics/SVG/1.1/DTD/svg11.dtd" [
	<!ENTITY ns_extend "http://ns.adobe.com/Extensibility/1.0/">
	<!ENTITY ns_ai "http://ns.adobe.com/AdobeIllustrator/10.0/">
	<!ENTITY ns_graphs "http://ns.adobe.com/Graphs/1.0/">
	<!ENTITY ns_vars "http://ns.adobe.com/Variables/1.0/">
	<!ENTITY ns_imrep "http://ns.adobe.com/ImageReplacement/1.0/">
	<!ENTITY ns_sfw "http://ns.adobe.com/SaveForWeb/1.0/">
	<!ENTITY ns_custom "http://ns.adobe.com/GenericCustomNamespace/1.0/">
	<!ENTITY ns_adobe_xpath "http://ns.adobe.com/XPath/1.0/">
]>
<svg version="1.1" id="Ebene_1" xmlns:x="&ns_extend;" xmlns:i="&ns_ai;" xmlns:graph="&ns_graphs;"
	 xmlns="http://www.w3.org/2000/svg" xmlns:xlink="http://www.w3.org/1999/xlink" x="0px" y="0px" viewBox="0 0 391 127.9"
	 style="enable-background:new 0 0 391 127.9;" xml:space="preserve">
<style type="text/css">
	.st0{fill:#95C11F;}
	.st1{fill:#575756;}
</style>
<switch>
	<g>
		<g>
			<polygon class="st0" points="104.6,60.8 99.3,46 70.3,55.5 70.3,24.4 54.4,24.4 54.4,55.5 25.4,46 20.1,60.8 49.7,70.3 
				31.7,95.1 44.4,104.6 62.3,79.8 80.3,104.6 93.5,95.1 75,70.3 			"/>
			<polygon class="st0" points="104.6,60.8 99.3,46 70.3,55.5 70.3,24.4 54.4,24.4 54.4,55.5 25.4,46 20.1,60.8 49.7,70.3 
				31.7,95.1 44.4,104.6 62.3,79.8 80.3,104.6 93.5,95.1 75,70.3 			"/>
		</g>
		<g>
			<path class="st1" d="M166.7,91.5h-28.9v-51h28.9v7.1h-20.5v13.9h19.2v7h-19.2v16h20.5V91.5z"/>
			<path class="st1" d="M175.6,91.5v-51h8.3v43.9h21.6v7.2H175.6z"/>
			<path class="st1" d="M243.5,77.7c0,4.5-1.6,8.1-4.9,10.7c-3.3,2.6-7.8,3.9-13.6,3.9s-10.5-0.9-14.2-2.7v-7.9
				c2.3,1.1,4.8,2,7.4,2.6s5.1,0.9,7.3,0.9c3.3,0,5.7-0.6,7.3-1.9c1.6-1.3,2.4-2.9,2.4-5.1c0-1.9-0.7-3.5-2.2-4.9
				c-1.4-1.3-4.4-2.9-8.9-4.7c-4.7-1.9-7.9-4-9.8-6.5c-1.9-2.4-2.9-5.3-2.9-8.7c0-4.3,1.5-7.6,4.5-10.1s7.1-3.7,12.2-3.7
				c4.9,0,9.8,1.1,14.6,3.2l-2.7,6.8c-4.5-1.9-8.6-2.9-12.1-2.9c-2.7,0-4.7,0.6-6.1,1.8c-1.4,1.2-2.1,2.7-2.1,4.7
				c0,1.3,0.3,2.5,0.8,3.4s1.5,1.8,2.8,2.7s3.6,1.9,6.9,3.3c3.7,1.6,6.5,3,8.2,4.4c1.7,1.3,3,2.9,3.8,4.6S243.5,75.4,243.5,77.7z"/>
			<path class="st1" d="M271,91.5h-8.3V47.7h-15v-7.2H286v7.2h-15V91.5z"/>
			<path class="st1" d="M321.1,91.5h-28.9v-51h28.9v7.1h-20.5v13.9h19.2v7h-19.2v16h20.5V91.5z"/>
			<path class="st1" d="M338.4,71.1v20.4H330v-51h14.4c6.6,0,11.5,1.2,14.6,3.7c3.2,2.5,4.7,6.2,4.7,11.2c0,6.4-3.3,10.9-9.9,13.6
				l14.4,22.6h-9.5l-12.2-20.4H338.4z M338.4,64.2h5.8c3.9,0,6.7-0.7,8.4-2.2c1.7-1.4,2.6-3.6,2.6-6.4c0-2.9-0.9-5-2.8-6.2
				c-1.9-1.3-4.7-1.9-8.5-1.9h-5.5V64.2z"/>
		</g>
	</g>
</switch>
</svg>