<?xml version="1.0"?>
<svg xmlns="http://www.w3.org/2000/svg" xmlns:xlink="http://www.w3.org/1999/xlink" viewBox="42 0 194 146" width="195" height="146">
  <svg xmlns:xlink="http://www.w3.org/1999/xlink" width="270" height="146" viewBox="0 0 270 146">
  <defs>
    <polygon id="a" points="0.293492661 0.300042105 11.8659216 0.300042105 11.8659216 6.63157895 0.293492661 6.63157895"/>
  </defs>
  <g fill="none" fill-rule="evenodd">
    <rect fill="#F7F8F8" width="270" height="146"/>
    <g transform="translate(55 26.632)">
      <g transform="translate(0 .278)">
        <path d="M66.0187516,8.38227895 C64.9981002,8.49575263 63.9615704,8.63538421 62.9036232,8.84317368 C61.5041048,9.1077 60.081692,9.45106842 58.6323227,9.89096316 C60.4845612,11.5429632 62.2917493,13.4193316 64.0250842,15.4979632 C66.7170337,15.2540684 69.322575,15.2175947 71.8110589,15.3575947 C70.3916002,12.7064368 68.7816002,10.3304895 67.0294328,8.2957 C66.6919236,8.32222632 66.3529374,8.34691053 66.0187516,8.38227895" fill="#4E7F97"/>
        <path d="M49.1679229 13.7646895C47.8625674 14.4385316 46.55315 15.1680053 45.2551798 15.9575316 47.1901339 16.5352158 49.1483518 17.2042684 51.1209711 17.9761105 53.1523037 17.3822158 55.1692349 16.8903737 57.1529321 16.4950579 55.2323794 15.0803211 53.3018564 13.8100053 51.3683794 12.6796895 50.6280009 13.0204789 49.9001775 13.3859526 49.1679229 13.7646895M35.6471725 22.9086421C37.3336106 22.4742737 39.0540211 22.0863263 40.8120968 21.7499579 42.4575463 21.0153263 44.1074271 20.3436947 45.739583 19.7457474 43.8286312 19.5622737 41.945005 19.4499053 40.0927665 19.4045895 38.5998239 20.4973263 37.1054041 21.6655895 35.6471725 22.9086421" fill="#39748E"/>
        <path d="M81.253672,12.7529684 C80.3013349,11.8794421 79.1643647,11.2759684 77.8867041,10.9237579 L77.8881812,10.9281789 C78.6872729,11.8702316 79.3338578,13.0046 79.8249817,14.3032842 C81.1650482,14.6805474 82.3563005,15.2287579 83.35775,15.9427579 C82.9031835,14.7056 82.2049014,13.6257579 81.253672,12.7529684" fill="#56859C"/>
        <path d="M51.9379722.108647368C49.0071076-.0243526316 46.1401259.584278947 43.410142 1.82512105 46.1696672 2.30517368 48.9624264 3.34338421 51.714197 4.88043684 54.5918874 3.59464737 57.4725319 2.80843684 60.2649218 2.59143684 57.6553186 1.10522632 54.8614516.250121053 51.9379722.108647368M30.7612287 13.5034789C33.2441736 13.5837947 35.840114 13.8693211 38.5025222 14.3479 40.4112585 12.4339526 42.3805544 10.7329526 44.3712677 9.24416316 41.5788778 8.12305789 38.8245222 7.3409 36.1639603 6.90726842 34.2308525 8.78032105 32.4240337 10.9919526 30.7612287 13.5034789" fill="#447992"/>
        <path d="M24.4240323,26.7331842 C26.2829177,25.9307632 28.2130713,25.1898684 30.2137548,24.5175 C31.3920828,22.7560789 32.6243236,21.0974474 33.8842594,19.5165526 C31.5028626,19.6631842 29.2052892,19.9240263 26.9893236,20.3027632 C26.0476952,22.3349737 25.1909979,24.4843421 24.4240323,26.7331842" fill="#39748E"/>
        <path d="M21.541283,38.2197053 C22.5538106,36.8005474 23.6187739,35.3961263 24.7572211,34.0079158 C25.5430193,32.3990211 26.3723908,30.8288105 27.2390583,29.3146 C25.6567532,30.4003368 24.1390697,31.5258632 22.6882234,32.6808632 C22.2451041,34.4776526 21.8610674,36.3271263 21.541283,38.2197053" fill="#447992"/>
        <path d="M21.9082227 8.67550526C21.0072135 9.14192632 20.1468236 9.68203158 19.32853 10.3087158 16.9962456 12.0896632 15.1945966 14.3959789 13.898842 17.1020316 14.2182571 16.9145053 14.5328718 16.7417158 14.8626264 16.5707684 17.0593901 15.4352947 19.539381 14.6214526 22.243147 14.1052947 23.6201401 11.2732421 25.3195025 8.82913684 27.3139085 6.87024211 25.3911401 7.21655789 23.5743511 7.81487368 21.9082227 8.67550526M19.4306321 22.1574316C17.2482697 22.8699579 15.2077055 23.7118 13.3421734 24.6785368 12.751717 24.9813789 12.1789853 25.2993263 11.6254555 25.6301684 11.349983 28.3074842 11.3928179 31.1631158 11.7395587 34.1569053 13.6937147 32.6146947 15.862045 31.1726947 18.2153775 29.8279579 18.4435839 27.1436421 18.8494073 24.5772211 19.4306321 22.1574316M18.0080346 36.7424474C16.2772846 38.3848684 14.6820553 40.0622895 13.2304704 41.7706579 13.81428 43.9421316 14.5446883 46.1309211 15.4102479 48.3480789 16.3116264 46.5498158 17.3108603 44.7316579 18.4175507 42.9345 18.1886057 40.8363421 18.0541929 38.7636053 18.0080346 36.7424474M19.2333702 48.5333579C18.7163977 50.3758316 18.281033 52.2109368 17.9136133 54.0298316 18.7355995 55.6932526 19.6262693 57.3434105 20.5937463 59.0049895 20.4593335 57.2638316 20.378095 55.5049895 20.3515078 53.7070947 19.9161431 51.9699895 19.5454 50.2450421 19.2333702 48.5333579M29.6619236 71.6273158C28.2059076 70.5692105 26.8078663 69.482 25.4652149 68.3771053 26.266153 70.1241579 27.1043869 71.8001053 27.9946874 73.4288947 29.6914649 74.1683158 31.4440016 74.8705263 33.2552516 75.5218947 32.0351966 74.2795789 30.8372975 72.9808947 29.6619236 71.6273158" fill="#4E7F97"/>
        <path d="M16.9429606 60.1368158C16.6822587 62.5090789 16.5367679 64.8209211 16.5242128 67.0561316 18.3609422 68.3301316 20.3391005 69.5473947 22.4302541 70.6913421 21.9594399 68.7401842 21.5606326 66.6987632 21.2460179 64.6127632 19.713933 63.1471842 18.2826578 61.6602368 16.9429606 60.1368158M4.8208422 31.2812316C2.89918165 33.5842316 1.5605922 36.1838105.91954633 39.0409158.280346789 41.8972842.385587615 44.8148105 1.13667477 47.7179684 2.0860578 45.0852316 3.60374128 42.5206526 5.6040555 40.0809684 4.82970459 37.0282316 4.54832385 34.0631789 4.8208422 31.2812316M4.88321124 55.7100158C6.40901858 57.9474368 8.27602775 60.1030684 10.4698374 62.1651211 10.9801631 59.7372263 11.7116791 57.2408053 12.6459222 54.7005421 11.0950048 52.4973842 9.74349106 50.2651211 8.63052317 48.0417 7.03344748 50.6025947 5.77794289 53.1797 4.88321124 55.7100158" fill="#56859C"/>
        <path d="M24.4094094 77.3385421C21.795375 76.6444368 19.3286778 75.8018579 17.0418131 74.8111737 17.4712695 77.7957526 18.1595814 80.5603842 19.1100722 83.0645421 21.7012122 83.7999105 24.5401296 84.2700158 27.5404163 84.4339632 26.6327603 82.7510158 25.8100356 80.9601211 25.0626411 79.0682789 24.8414507 78.5009105 24.6173062 77.9239632 24.4094094 77.3385421M3.31401514 64.4056737C3.33469404 67.3994632 3.99014128 70.2451474 5.33500826 72.8336737 6.68652202 75.4362 8.63550826 77.6021474 11.0859578 79.3392526 10.11885 76.7190421 9.62292569 73.7897263 9.58193716 70.6478316 7.03030872 68.8031474 4.90555183 66.7046211 3.31401514 64.4056737" fill="#618BA2"/>
        <path d="M37.381172,79.4084053 C35.2726628,79.2750368 33.2066193,79.0421947 31.2144289,78.7419316 C32.5323394,80.7233 33.9052706,82.5819842 35.3406078,84.2991947 C37.5779908,84.0998789 39.8703945,83.7679316 42.2045252,83.3063 C40.5841858,82.1000895 38.9697546,80.8028789 37.381172,79.4084053" fill="#4E7F97"/>
        <path d="M80.0880099,17.2733105 C77.9056475,16.6536263 75.5187117,16.2649421 72.98887,16.1190474 C73.9773952,17.9681526 74.8673264,19.9760474 75.6365076,22.1158368 C77.836964,22.6994158 79.9144548,23.4108368 81.8364846,24.2346263 C81.4786658,21.7308368 80.8907943,19.3869421 80.0880099,17.2733105" fill="#99D4E4"/>
        <path d="M59.0652502,17.6047053 C60.1464612,18.3990211 61.2202869,19.2592842 62.2760186,20.1796 C63.6747984,20.2698632 65.0392365,20.4135474 66.3630553,20.6154421 C65.4860484,19.3046 64.5654681,18.0748105 63.6142388,16.9316 C62.1334819,17.0657053 60.6154291,17.2930211 59.0652502,17.6047053" fill="#86CFE0"/>
        <path d="M75.8401947 9.05582632C73.9019172 6.76572105 71.5773874 5.00540526 68.8684516 3.88172105 66.1609929 2.75840526 63.2578232 2.35203684 60.2645525 2.59151053 62.6921076 3.97566842 64.9682635 5.90987895 67.0291374 8.29577368 70.1690067 8.06772105 73.1478759 8.31640526 75.8442567 9.06393158L75.8401947 9.05582632ZM49.9603679 5.73535789C48.0915124 6.70246316 46.2226569 7.87146316 44.3803885 9.23941053 45.247056 9.59235789 46.1137234 9.96372632 46.9870376 10.3741474 48.4434229 11.0594105 49.9001775 11.8290421 51.3683794 12.6793579 53.8158748 11.5295158 56.2485995 10.6029368 58.6322119 9.89114737 56.3903977 7.87662105 54.0666064 6.20030526 51.7143817 4.88062105 51.1390651 5.14809474 50.548978 5.43141053 49.9603679 5.73535789" fill="#99D4E4"/>
        <path d="M44.3712307,9.24361053 C42.3805174,10.7335053 40.4112216,12.4334 38.5024853,14.3480842 C40.7077422,14.7515053 42.9650656,15.2897684 45.2552537,15.9577158 C46.5532239,15.1678211 47.8626413,14.4390842 49.1679968,13.7645053 C49.9002514,13.3854 50.6280748,13.0206632 51.3680839,12.6791368 C49.9002514,11.8291895 48.4434968,11.0595579 46.9871115,10.3739263 C46.1137972,9.96387368 45.2467606,9.59213684 44.3712307,9.24361053" fill="#91D2E2"/>
        <path d="M33.8842963,19.5165895 C34.3894523,19.4801158 34.9023628,19.4602211 35.4049339,19.4443789 C36.4266931,19.3961158 37.4643307,19.3810105 38.5137849,19.3813789 C39.039989,19.3869053 39.5639775,19.3920632 40.0923972,19.4045895 C41.8068995,18.1578526 43.5280486,17.0098526 45.255106,15.9576421 C42.9652872,15.2896947 40.7075945,14.7518 38.5027069,14.3480105 C36.9204018,15.9333263 35.3750234,17.6586421 33.8842963,19.5165895" fill="#86CFE0"/>
        <path d="M35.4050078,19.4442684 C34.9024367,19.4601105 34.3895261,19.4803737 33.8843702,19.5164789 C32.6244344,21.0973737 31.3921936,22.7560053 30.2138656,24.5177947 C31.9778495,23.9239 33.7809757,23.3849 35.6472463,22.9085316 C37.105478,21.6654789 38.5995284,20.4975842 40.0924711,19.4048474 C39.5640514,19.3919526 39.0400628,19.3871632 38.5138587,19.3812636 C37.4644046,19.3809 36.4293518,19.4015316 35.4050078,19.4442684" fill="#7BCBDE"/>
        <path d="M27.2389475,29.3146368 C28.6838856,28.3342684 30.1720278,27.3712158 31.712975,26.4567947 C33.0028213,25.2166895 34.3196241,24.0336895 35.6471356,22.9089 C33.7808649,23.3849 31.9777388,23.9242684 30.2137548,24.5177947 C29.1846103,26.0496895 28.1909154,27.6519526 27.2389475,29.3146368" fill="#71C7DB"/>
        <path d="M24.7572211,34.0080632 C25.8266156,32.6994316 26.9477073,31.4055368 28.1308358,30.1223263 C29.2977165,28.8575368 30.4974619,27.6310632 31.7130858,26.4569053 C30.1721385,27.3709579 28.6839963,28.3343789 27.2390583,29.3147474 C26.3727601,30.8285895 25.5433885,32.3991684 24.7572211,34.0080632" fill="#58C0D6"/>
        <path d="M34.7293986,2.34183158 C33.7471509,2.64725263 32.806261,3.03741053 31.9063596,3.50309474 C30.2324766,4.37146316 28.7063,5.4992 27.3137977,6.87009474 C30.0655683,6.37346316 33.0484995,6.39741053 36.1639972,6.90730526 C38.1355087,4.99041053 40.2458642,3.44267368 42.4415202,2.30498947 C42.7624124,2.13993684 43.0869972,1.98225263 43.410105,1.82530526 C40.448222,1.32388421 37.533605,1.46646316 34.7293986,2.34183158" fill="#A2D9E8"/>
        <path d="M27.3137977,6.87009474 C25.3193917,8.82898947 23.6200294,11.2730947 22.2430362,14.1055158 C24.8899353,13.6118316 27.7436234,13.4128842 30.7612656,13.5035158 C32.4240706,10.9916211 34.2308894,8.77998947 36.1639972,6.90730526 C33.0484995,6.39704211 30.0651991,6.37346316 27.3137977,6.87009474" fill="#99D4E4"/>
        <path d="M22.2432209,14.1054053 C21.0660007,16.5274053 20.1214181,19.2312474 19.4305213,22.1572474 C21.7949319,21.3806158 24.3262507,20.7668263 26.9893975,20.3026158 C28.1333837,17.8588789 29.3903654,15.5761421 30.7614502,13.5034053 C27.7434388,13.4127737 24.8897507,13.6117211 22.2432209,14.1054053" fill="#91D2E2"/>
        <path d="M18.2153775,29.8277 C18.9180908,29.4334895 19.6403752,29.0374368 20.3837078,28.6539105 C21.6779853,27.9844895 23.0346688,27.3445421 24.424217,26.7333316 C25.1911826,24.4841211 26.0478798,22.3347526 26.9895083,20.3025421 C24.3259922,20.7667526 21.7950427,21.3809105 19.4306321,22.1571737 C18.8494073,24.5769632 18.4435839,27.1433842 18.2153775,29.8277" fill="#86CFE0"/>
        <path d="M18.2153775,29.8277 C18.0192972,32.0603316 17.9506138,34.3754895 18.00785,36.7425947 C19.4764211,35.3551211 21.039155,34.0033842 22.6882972,32.6807526 C23.1934532,30.6319632 23.7743087,28.6461737 24.424217,26.7333316 C23.0346688,27.3445421 21.6779853,27.9844895 20.3837078,28.6539105 C19.6403752,29.0374368 18.9180908,29.4334895 18.2153775,29.8277" fill="#7BCBDE"/>
        <path d="M18.4173291,42.9343526 C19.3770516,41.3519842 20.4191204,39.7791947 21.54132,38.2200368 C21.8611044,36.3270895 22.2451411,34.4776158 22.6882603,32.6808263 C21.0391181,34.0034579 19.4763842,35.3551947 18.0078131,36.7419316 C18.0539713,38.7638263 18.1887534,40.8365632 18.4173291,42.9343526" fill="#71C7DB"/>
        <path d="M19.2333702,48.5333579 C19.6923679,46.8456211 20.2222647,45.1542 20.8160445,43.4620421 C21.0003083,41.6829368 21.2436546,39.9277789 21.541283,38.2197789 C20.4190835,39.7793053 19.3770147,41.3517263 18.4172922,42.9340947 C18.614111,44.7728842 18.8932761,46.6422526 19.2333702,48.5333579" fill="#63C3D9"/>
        <path d="M20.3514709,53.7070579 C20.3182369,52.0185842 20.3492553,50.3098474 20.4327094,48.5830579 C20.5039778,46.8529526 20.6350672,45.1442158 20.8160076,43.4620053 C20.2222278,45.1541632 19.6919617,46.8455842 19.2333333,48.5333211 C19.5449938,50.2453737 19.9161062,51.9699526 20.3514709,53.7070579" fill="#58C0D6"/>
        <path d="M11.6255663,25.6300947 C11.9516282,22.4992526 12.7019768,19.6296211 13.8987681,17.1022526 C11.3168599,18.6072526 9.16773142,20.5937789 7.59650436,23.0585158 C6.01235298,25.5177263 5.10875894,28.2970947 4.82073142,31.2813053 C6.60908693,29.1308316 8.91330711,27.2349368 11.6255663,25.6300947" fill="#ABDCEA"/>
        <path d="M11.7397064,34.1566474 C11.3925963,31.1628579 11.3501307,28.3075947 11.6256032,25.6299105 C8.91334404,27.2351211 6.60912385,29.1306474 4.82076835,31.2811211 C4.54825,34.0630684 4.82963073,37.0281211 5.60398165,40.0808579 C7.31183716,38.0033316 9.37381881,36.0094368 11.7397064,34.1566474" fill="#A2D9E8"/>
        <path d="M11.7397064,34.1566474 C9.37381881,36.0094368 7.31183716,38.0033316 5.60398165,40.0808579 C6.26201376,42.6808053 7.27860321,45.3614368 8.63048624,48.0413316 C9.93768807,45.9361737 11.4860206,43.8361737 13.2304335,41.7708053 C12.5317821,39.1701211 12.0269954,36.6180684 11.7397064,34.1566474" fill="#99D4E4"/>
        <path d="M26.4202108,67.6470053 C25.3644791,66.2746368 24.3648759,64.8856895 23.4214011,63.4775842 C24.056908,65.1524263 24.74522,66.7878474 25.4649195,68.3772158 C26.8079401,69.4817421 28.2059814,70.5693211 29.6619975,71.6274263 C28.5501374,70.3486368 27.4652337,69.0230579 26.4202108,67.6470053" fill="#58C0D6"/>
        <path d="M13.2302858,41.7708053 C11.4858729,43.8361737 9.93754037,45.9361737 8.63033853,48.0413316 C9.74367569,50.2651211 11.0951894,52.4973842 12.6457376,54.7005421 C13.4252583,52.6023842 14.3432537,50.4865421 15.4104326,48.3478579 C14.5448729,46.1310684 13.8144647,43.9422789 13.2302858,41.7708053" fill="#91D2E2"/>
        <path d="M20.5935986,59.0049158 C20.7424128,60.9114947 20.959172,62.7911789 21.2460917,64.6130211 C22.5832041,65.8921789 23.9819839,67.1507053 25.4649564,68.3775474 C24.7452569,66.7874421 24.056945,65.1527579 23.4214381,63.4779158 C22.4151881,61.9950211 21.4772523,60.4970211 20.5935986,59.0049158" fill="#71C7DB"/>
        <path d="M15.4101741,48.3480421 C14.3433644,50.4867263 13.4249998,52.6025684 12.6458484,54.7003579 C13.9379103,56.5339895 15.3787865,58.3584105 16.9429975,60.1367789 C17.172681,58.1322 17.4991122,56.0885684 17.9137979,54.0298316 C16.978447,52.1287789 16.1420594,50.2284632 15.4101741,48.3480421" fill="#86CFE0"/>
        <path d="M17.9137241,54.0297947 C17.4994076,56.0885316 17.1726071,58.1325316 16.9429236,60.1367421 C18.2826209,61.6601632 19.7138961,63.1471105 21.245981,64.6130579 C20.9590612,62.7912158 20.7423021,60.9115316 20.5934878,59.0049526 C19.6260108,57.3433737 18.7357103,55.6935842 17.9137241,54.0297947" fill="#7BCBDE"/>
        <path d="M33.2869716,75.5532842 C33.2766321,75.5426 33.2662927,75.5322842 33.2555839,75.5219684 C31.4443339,74.8702316 29.6917972,74.1683895 27.9950197,73.4286 C29.008655,75.2788105 30.0765725,77.0483368 31.2020954,78.7375474 C33.1880083,79.0374421 35.2485128,79.2688105 37.3525908,79.4014421 C35.9667353,78.1889684 34.6011894,76.8924947 33.257061,75.5429684 C33.2670312,75.5466526 33.2773706,75.5492316 33.2869716,75.5532842" fill="#71C7DB"/>
        <path d="M22.4304018,70.6914895 C22.9891014,73.0014895 23.6500876,75.2179105 24.4092986,77.3385421 L31.2019477,78.7374368 C30.0764248,77.0482263 29.0088766,75.2790684 27.994872,73.4288579 C26.0658261,72.5722789 24.2069408,71.6689105 22.4304018,70.6914895" fill="#7BCBDE"/>
        <path d="M16.5242867,67.0558737 C16.5132087,69.7475579 16.6937798,72.3578211 17.0416284,74.8111368 C19.3284931,75.8018211 21.7955596,76.6444 24.4092248,77.3385053 C23.6500138,75.2178737 22.9890275,73.0018211 22.430328,70.6914526 C20.3391743,69.5475053 18.3610161,68.3298737 16.5242867,67.0558737" fill="#86CFE0"/>
        <path d="M10.4699851,62.1652684 C9.85404931,65.1148474 9.55309748,67.9645842 9.58190023,70.6474263 C11.7686938,72.2309 14.2756411,73.6194789 17.0418131,74.8109526 C16.6939644,72.3576368 16.5133933,69.7473737 16.5244713,67.0556895 C14.3081365,65.5061105 12.279758,63.8806368 10.4699851,62.1652684" fill="#91D2E2"/>
        <path d="M4.88321124,55.7100158 C3.84668142,58.6864895 3.30533739,61.6099105 3.31419977,64.4058579 C4.9053672,66.7048053 7.03049335,68.8025947 9.58175252,70.6480158 C9.55331904,67.9648053 9.85390161,65.1147 10.4698374,62.1651211 C8.27602775,60.1030684 6.40901858,57.9474368 4.88321124,55.7100158" fill="#99D4E4"/>
        <path d="M1.13682248,47.7177105 C0.133157339,50.5379737 -0.229831193,53.4330263 0.143866055,56.3306579 C0.524210092,59.2367632 1.61686835,61.9387632 3.31401514,64.4057105 C3.30515275,61.6093947 3.84686606,58.6863421 4.88302661,55.7095 C3.11904266,53.1169211 1.84544404,50.4193421 1.13682248,47.7177105" fill="#A2D9E8"/>
        <path d="M38.3172984,77.1565053 C36.6050117,76.6661368 34.9200507,76.1278737 33.2867869,75.5531368 C33.277186,75.5494526 33.2668466,75.5465053 33.2568764,75.5428211 C34.6010048,76.8923474 35.96692,78.1891895 37.3524062,79.4016632 C37.3623764,79.4097684 37.371608,79.4186105 37.3812089,79.4270842 C39.2371401,79.5541895 41.1270438,79.6087158 43.0546126,79.5895579 C41.4741539,78.8409263 39.8870484,78.0285579 38.3172984,77.1565053" fill="#63C3D9"/>
        <path d="M11.0859209,79.3393263 C12.1206044,82.1511158 13.7169415,84.6066421 15.8645929,86.5850632 C18.0277534,88.5675368 20.6081846,89.9384316 23.5028612,90.7412211 C21.6993658,88.6058526 20.2248865,86.0129053 19.1100722,83.0648 C16.0765516,82.2034316 13.3750011,80.9684842 11.0859209,79.3393263" fill="#99D4E4"/>
        <path d="M48.5857011,83.3854737 C47.1751048,83.7977368 45.7737401,84.1377895 44.396747,84.413 C45.7301667,85.3948421 47.0720796,86.2790526 48.4199007,87.0612105 C48.9294878,86.8272632 49.4394443,86.5708421 49.9494007,86.3070526 C50.8559489,85.8380526 51.7576966,85.3340526 52.6579672,84.7869474 C51.3164236,84.3868421 49.9549397,83.9207895 48.5857011,83.3854737" fill="#58C0D6"/>
        <g transform="translate(28.064 84.368)">
          <mask id="b" fill="#fff">
            <use xlink:href="#a"/>
          </mask>
          <path d="M7.13414633,0.300042105 C4.76715092,0.5152 2.47437798,0.559410526 0.293492661,0.424568421 C1.54198119,2.7552 2.95294679,4.84267368 4.4931555,6.63172632 C6.85793532,6.4652 9.33275642,5.9892 11.8659216,5.23209474 C10.2378275,3.78014737 8.65663028,2.12704211 7.13414633,0.300042105" fill="#7BCBDE" mask="url(#b)"/>
        </g>
        <path d="M63.6724351 51.8494789C66.287208 50.0346368 68.1494167 49.3711105 70.7206163 49.3711105 75.50852 49.3711105 78.2145016 52.0252158 78.2145016 56.7152158 78.2145016 60.3891105 76.7950429 64.5036368 74.5783388 67.0685842 72.3180612 69.7687421 69.21438 71.1849526 65.7122608 71.1849526 63.2732585 71.1849526 61.9867356 70.6094789 60.081692 68.7957421L58.6182906 70.6094789 51.1251438 70.6094789 57.7298365 39.6366895 66.287208 39.6366895 63.6724351 51.8494789ZM61.6776599 62.2463211C61.6776599 64.0154789 62.7400383 65.1679 64.3374833 65.1679 66.9090521 65.1679 68.9474007 62.1593737 68.9474007 58.2644263 68.9474007 56.4495842 68.0604236 55.4334789 66.4201438 55.4334789 63.8053709 55.4334789 61.6776599 58.4416368 61.6776599 62.2463211L61.6776599 62.2463211ZM89.5585764 61.7152053C89.3377553 62.8230474 89.2476544 63.3521 89.2476544 64.0156263 89.2476544 65.6543632 89.9141796 66.4052053 91.4654663 66.4052053 92.9288677 66.4052053 93.90373 65.6543632 94.7903378 63.8402579L102.017613 65.3445211C99.6672346 69.3702579 95.9003516 71.1847316 90.0020649 71.1847316 84.0613126 71.1847316 80.8701154 68.6179421 80.8701154 63.8402579 80.8701154 59.8126789 82.5986498 55.3437316 84.9929709 52.9541526 87.4737002 50.5211 90.8004181 49.3712579 95.2792461 49.3712579 101.574125 49.3712579 104.367622 51.7151526 104.367622 57.0255737 104.367622 58.4417842 104.189267 59.5908895 103.658262 61.7152053L89.5585764 61.7152053ZM96.3423631 57.6445211C96.4302484 57.0255737 96.4745603 56.6284158 96.4745603 56.4047842 96.4745603 54.9458368 95.7223654 54.1496789 94.2578562 54.1496789 92.4406979 54.1496789 91.3321612 55.2111 90.5792278 57.6445211L96.3423631 57.6445211Z" fill="#5198AE"/>
      </g>
      <path d="M133.821797,70.8872684 L124.333875,70.8872684 L124.112684,66.5078474 L114.5354,66.5078474 L112.14071,70.8872684 L103.540872,70.8872684 L120.475783,41.3737947 L130.983987,41.3737947 L133.821797,70.8872684 Z M123.137083,51.1520579 L117.948526,60.3566895 L123.844967,60.3566895 L123.137083,51.1520579 Z" fill="#5198AE"/>
      <path d="M4.04010298.1932C4.7317383.1932 5.18999748.264305263 5.62757775.436726316 6.35023142.731831579 6.7671328 1.47198947 6.7671328 2.45714737 6.7671328 3.79746316 6.14602729 5.23946316 5.23024748 6.05146316 4.53824289 6.67114737 3.66382087 6.96514737 2.55417638 6.96514737L.142499771 6.96514737 1.58743784.1932 4.04010298.1932ZM1.56749748 6.01093684 2.63541491 6.01093684C3.39868784 6.01093684 3.98914427 5.79798947 4.41712362 5.36104211 5.03712133 4.73141053 5.44479106 3.65525263 5.44479106 2.62993684 5.44479106 1.99035789 5.18999748 1.49335789 4.76275665 1.29956842 4.48802271 1.17798947 4.28418784 1.14741053 3.66382087 1.14741053L2.60476583 1.14741053 1.56749748 6.01093684ZM8.02865642 6.96544211 6.89907156 6.96544211 7.86581009 2.41728421 9.00536514 2.41728421 8.02865642 6.96544211ZM9.42300505.630442105C9.42300505 1.06628421 9.03601422 1.45202105 8.59880321 1.45202105 8.27274128 1.45202105 8.0593055 1.23870526 8.0593055.914494737 8.0593055.477178947 8.4455578.0918105263 8.88350734.0918105263 9.2092.0918105263 9.42300505.304757895 9.42300505.630442105L9.42300505.630442105ZM13.6953025 6.94495789C13.3803186 8.39727368 12.2906144 9.28074737 10.8054264 9.28074737 10.245619 9.28074737 9.78809839 9.13743158 9.50265573 8.86369474 9.2788805 8.66069474 9.17733234 8.43816842 9.06544472 7.95037895L10.1946603 7.48395789C10.245619 8.11211579 10.5402933 8.42748421 11.0801603 8.42748421 11.8330938 8.42748421 12.3626213 7.86932632 12.5863966 6.84364211L12.6676351 6.44722105C12.1281374 6.89411579 11.6706167 7.07685263 11.1104401 7.07685263 10.1440709 7.07685263 9.50265573 6.40632632 9.50265573 5.42190526 9.50265573 3.7058 10.7134791 2.30469474 12.1787268 2.30469474 12.7488736 2.30469474 13.1148163 2.49848421 13.4105984 2.94464211L13.522486 2.41706316 14.6620411 2.41706316 13.6953025 6.94495789ZM10.7441282 5.20895789C10.7441282 5.83858947 11.0598507 6.20369474 11.6096878 6.20369474 12.4442291 6.20369474 13.1251557 5.29037895 13.1251557 4.18401053 13.1251557 3.55437895 12.7998323 3.18890526 12.2503644 3.18890526 11.4357635 3.18890526 10.7441282 4.10258947 10.7441282 5.20895789L10.7441282 5.20895789ZM16.1936089 6.96544211 15.0643933 6.96544211 16.0311319 2.41728421 17.1706869 2.41728421 16.1936089 6.96544211ZM17.5879576.630442105C17.5879576 1.06628421 17.201336 1.45202105 16.764125 1.45202105 16.4380631 1.45202105 16.2246273 1.23870526 16.2246273.914494737 16.2246273.477178947 16.6108796.0918105263 17.0484599.0918105263 17.3741525.0918105263 17.5879576.304757895 17.5879576.630442105L17.5879576.630442105ZM19.9995234 2.41702632 21.180067 2.41702632 20.9762321 3.33034211 19.8063972 3.33034211 19.4500555 5.00518421C19.3887573 5.28002632 19.368817 5.44213158 19.368817 5.56371053 19.368817 5.92992105 19.6129018 6.11228947 20.0911014 6.11228947 20.2129592 6.11228947 20.3049064 6.09239474 20.4980326 6.04155263L20.1520303 6.94492105C19.7761174 7.01602632 19.6036702 7.03628947 19.3784179 7.03628947 18.5542161 7.03628947 18.1675945 6.71171053 18.1675945 6.03160526 18.1675945 5.78771053 18.1978743 5.59428947 18.300161 5.11755263L18.6760739 3.33034211 17.9744683 3.33034211 18.1675945 2.41702632 18.8699385 2.41702632 19.1147619 1.27934211 20.334817.863394737 19.9995234 2.41702632ZM25.3845303 6.96544211 24.2438674 6.96544211 24.3568628 6.44744211C23.8579844 6.88438947 23.3893858 7.07707368 22.7996679 7.07707368 21.8428995 7.07707368 21.1915142 6.40617895 21.1915142 5.41181053 21.1915142 3.67581053 22.3923674 2.30454737 23.9288835 2.30454737 24.4990303 2.30454737 24.7837344 2.46775789 25.0990876 2.96475789L25.2209454 2.41728421 26.3497917 2.41728421 25.3845303 6.96544211ZM22.4329867 5.19886316C22.4329867 5.83844211 22.7487092 6.20391579 23.2978078 6.20391579 24.1319798 6.20391579 24.8143835 5.29023158 24.8143835 4.18386316 24.8143835 3.54391579 24.4990303 3.17770526 23.9392229 3.17770526 23.1150211 3.17770526 22.4329867 4.10244211 22.4329867 5.19886316L22.4329867 5.19886316Z" transform="translate(62.775 78.015)" fill="#5E7C80"/>
      <polygon fill="#5E7C80" points="90.663125 84.9800737 89.5339094 84.9800737 91.0504851 77.8732316 92.1793314 77.8732316"/>
      <path d="M93.373464,84.2590737 C93.373464,84.7063368 92.9669021,85.1116 92.5293218,85.1116 C92.1932897,85.1116 91.9687759,84.8887053 91.9687759,84.5541789 C91.9687759,84.1069158 92.3653677,83.7112316 92.8132874,83.7112316 C93.1496888,83.7112316 93.373464,83.9344947 93.373464,84.2590737" fill="#5E7C80"/>
      <polygon fill="#5E7C80" points="101.504186 81.0807053 101.300351 82.0050737 98.7657085 82.0050737 98.3388369 84.0254947 101.249761 84.0254947 101.045557 84.9797053 96.9145778 84.9797053 98.3591466 78.2077579 102.114582 78.2077579 101.910378 79.1619684 99.3775823 79.1619684 98.9706511 81.0807053"/>
      <g transform="translate(0 77.646)">
        <path d="M103.192544 7.33386316 102.06222 7.33386316 103.030067 2.78570526 104.169253 2.78570526 103.192544 7.33386316ZM104.586523.998863158C104.586523 1.43470526 104.199902 1.82044211 103.762321 1.82044211 103.436998 1.82044211 103.222824 1.60712632 103.222824 1.28291579 103.222824.8456 103.609445.460231579 104.047025.460231579 104.372349.460231579 104.586523.673178947 104.586523.998863158L104.586523.998863158ZM106.557776 3.35355263C107.148602 2.84660526 107.545194 2.67307895 108.145251 2.67307895 108.969822 2.67307895 109.4687 3.08976316 109.4687 3.7905 109.4687 3.96292105 109.437682 4.15560526 109.376384 4.44997368L108.765987 7.33397368 107.636772 7.33397368 108.186978 4.7145C108.227228 4.55202632 108.247538 4.37960526 108.247538 4.25802632 108.247538 3.85128947 108.003083 3.62839474 107.555164 3.62839474 106.86279 3.62839474 106.415609 4.02371053 106.252762 4.77492105L105.703294 7.33397368 104.57371 7.33397368 105.540817 2.78544737 106.681111 2.78544737 106.557776 3.35355263ZM113.301941 3.70937368 112.122136 3.70937368 111.348892 7.3339 110.218938 7.3339 110.991812 3.70937368 110.382154 3.70937368 110.574911 2.78537368 111.186046 2.78537368 111.286856 2.3079C111.593347.906794737 112.274642.227057895 113.383548.227057895 113.668253.227057895 113.862486.267584211 114.229168.379215789L113.811158 1.25237368C113.638711 1.16100526 113.557103 1.14074211 113.425275 1.14074211 112.916058 1.14074211 112.599966 1.49553158 112.437119 2.24711053L112.325232 2.78537368 113.495805 2.78537368 113.301941 3.70937368ZM117.587421 7.33386316 116.447866 7.33386316 116.559753 6.81586316C116.061244 7.25281053 115.593015 7.44549474 115.002558 7.44549474 114.046159 7.44549474 113.395513 6.7746 113.395513 5.78023158 113.395513 4.04423158 114.595258 2.67296842 116.132882 2.67296842 116.70229 2.67296842 116.987364 2.83617895 117.302717 3.33317895L117.424944 2.78570526 118.55379 2.78570526 117.587421 7.33386316ZM114.636616 5.56728421C114.636616 6.20686316 114.951969 6.57233684 115.500698 6.57233684 116.335978 6.57233684 117.017643 5.65865263 117.017643 4.55228421 117.017643 3.91233684 116.70229 3.54612632 116.143221 3.54612632 115.317912 3.54612632 114.636616 4.47086316 114.636616 5.56728421L114.636616 5.56728421ZM122.277174 4.40915263C122.298591 4.28757368 122.308561 4.15604737 122.308561 4.09525789 122.308561 3.69846842 122.074816 3.47520526 121.667515 3.47520526 121.178976 3.47520526 120.782015 3.71946842 120.497681 4.20615263 120.242148 4.63315263 120.101089 5.15041579 120.101089 5.64815263 120.101089 6.29841579 120.385424 6.63294211 120.924183 6.63294211 121.392412 6.63294211 121.667515 6.41999474 121.973268 5.80031053L122.990965 6.09467895C122.705153 6.62299474 122.512027 6.84588947 122.156054 7.06988947 121.748015 7.31341579 121.250614 7.44531053 120.701146 7.44531053 119.530573 7.44531053 118.87808 6.82599474 118.87808 5.72957368 118.87808 4.95773158 119.184201 4.13541579 119.673109 3.57652105 120.211869 2.97820526 120.914582 2.67315263 121.779034 2.67315263 122.400139 2.67315263 122.86763 2.83673158 123.143103 3.15062632 123.346568 3.38383684 123.376848 3.47520526 123.397158 3.99320526L123.397158 4.05436316 122.277174 4.40915263ZM125.422065 3.35355263C126.012521 2.84660526 126.418714 2.67307895 127.00954 2.67307895 127.833742 2.67307895 128.332251 3.08976316 128.332251 3.7905 128.332251 3.96292105 128.311941 4.14528947 128.240673 4.44997368L127.629907 7.33397368 126.500691 7.33397368 127.050528 4.7145C127.091147 4.54207895 127.111088 4.38992105 127.111088 4.25802632 127.111088 3.85128947 126.865895 3.62839474 126.418714 3.62839474 126.052402 3.62839474 125.686459 3.78055263 125.461946 4.01376316 125.289868 4.19613158 125.186842 4.41939474 125.116313 4.77492105L124.567214 7.33397368 123.437998 7.33397368 124.953097.227131579 126.082682.227131579 125.422065 3.35355263ZM130.342277 6.61286316C130.342277 7.06012632 129.935345 7.46538947 129.497765 7.46538947 129.161733 7.46538947 128.938327 7.24249474 128.938327 6.90796842 128.938327 6.46070526 129.33455 6.06502105 129.781731 6.06502105 130.118132 6.06502105 130.342277 6.28828421 130.342277 6.61286316M137.740559 2.11517895C137.637903 1.56696842 137.343229 1.31312632 136.824779 1.31312632 136.213644 1.31312632 135.684486 1.81012632 135.684486 2.38891579 135.684486 2.58307368 135.765724 2.75512632 135.90863 2.87670526 136.050428 2.99828421 136.050428 2.99828421 136.743541 3.35344211 137.862417 3.93296842 138.147121 4.25791579 138.147121 4.95754737 138.147121 5.60781053 137.811827 6.30854737 137.261621 6.78638947 136.732463 7.24249474 136.071476 7.47570526 135.237304 7.47570526 134.605859 7.47570526 134.137999 7.34381053 133.771318 7.05975789 133.485875 6.83686316 133.364018 6.64307368 133.24216 6.20686316L134.391685 5.57723158C134.493972 6.19691579 134.870254 6.53144211 135.48102 6.53144211 136.213644 6.53144211 136.782683 5.99391579 136.782683 5.30238947 136.782683 5.02865263 136.630545 4.83633684 136.254632 4.61270526 136.153084 4.54196842 136.153084 4.54196842 135.714765 4.32791579 134.728086 3.83091579 134.391685 3.41423158 134.391685 2.68328421 134.391685 2.17596842 134.656449 1.59754737 135.084797 1.17054737 135.582568.683126316 136.264603.419705263 137.047447.419705263 138.055543.419705263 138.604642.7546 138.828786 1.51575789L137.740559 2.11517895ZM139.609968 7.33386316 138.479645 7.33386316 139.446383 2.78570526 140.585939 2.78570526 139.609968 7.33386316ZM141.003209.998863158C141.003209 1.43470526 140.616218 1.82044211 140.179377 1.82044211 139.854053 1.82044211 139.63951 1.60712632 139.63951 1.28291579 139.63951.8456 140.02687.460231579 140.464081.460231579 140.789773.460231579 141.003209.673178947 141.003209.998863158L141.003209.998863158ZM144.289972 4.40915263C144.310282 4.28757368 144.320252 4.15604737 144.320252 4.09525789 144.320252 3.69846842 144.086138 3.47520526 143.679945 3.47520526 143.190667 3.47520526 142.794445 3.71946842 142.508633 4.20615263 142.254578 4.63315263 142.11278 5.15041579 142.11278 5.64815263 142.11278 6.29841579 142.397484 6.63294211 142.936982 6.63294211 143.404472 6.63294211 143.679945 6.41999474 143.984959 5.80031053L145.001917 6.09467895C144.717583 6.62299474 144.523718 6.84588947 144.168115 7.06988947 143.760814 7.31341579 143.262305 7.44531053 142.712837 7.44531053 141.542633 7.44531053 140.890878 6.82599474 140.890878 5.72957368 140.890878 4.95773158 141.195523 4.13541579 141.684431 3.57652105 142.22319 2.97820526 142.927011 2.67315263 143.791463 2.67315263 144.412569 2.67315263 144.88006 2.83673158 145.155532 3.15062632 145.358259 3.38383684 145.388539 3.47520526 145.408849 3.99320526L145.408849 4.05436316 144.289972 4.40915263ZM147.635006 3.35355263C148.225832 2.84660526 148.632024 2.67307895 149.222481 2.67307895 150.046683 2.67307895 150.54593 3.08976316 150.54593 3.7905 150.54593 3.96292105 150.525621 4.14528947 150.453614 4.44997368L149.843217 7.33397368 148.713632 7.33397368 149.263469 4.7145C149.304089 4.54207895 149.324398 4.38992105 149.324398 4.25802632 149.324398 3.85128947 149.080313 3.62839474 148.632024 3.62839474 148.266082 3.62839474 147.900139 3.78055263 147.676733 4.01376316 147.503178 4.19613158 147.401261 4.41939474 147.329992 4.77492105L146.780524 7.33397368 145.650939 7.33397368 147.167515.227131579 148.296731.227131579 147.635006 3.35355263ZM152.325867 5.29244211C152.285617 5.50649474 152.274539 5.62807368 152.274539 5.71944211 152.274539 6.31849474 152.601339 6.66333684 153.150068 6.66333684 153.587279 6.66333684 153.872722 6.47065263 154.228325 5.93238947L155.155552 6.27796842C154.839461 6.69391579 154.676983 6.85602105 154.441761 7.01886316 154.035568 7.30328421 153.527089 7.44549474 152.926662 7.44549474 151.765321 7.44549474 151.104704 6.83686316 151.104704 5.76033684 151.104704 4.96786316 151.410087 4.12528421 151.898995 3.57670526 152.418183 2.98833684 153.150068 2.67333684 153.98461 2.67333684 155.063236 2.67333684 155.592763 3.17107368 155.592763 4.15549474 155.592763 4.48117895 155.562114 4.72433684 155.429917 5.29244211L152.325867 5.29244211ZM154.473518 4.5626C154.514137 4.34817895 154.524477 4.23691579 154.524477 4.13523158 154.524477 3.65849474 154.280392 3.41423158 153.781144 3.41423158 153.180348 3.41423158 152.732798 3.81102105 152.509022 4.5626L154.473518 4.5626ZM158.187596 2.78544737 158.045428 3.47513158C158.604497 2.88676316 158.981149 2.67307895 159.509199 2.67307895 159.804981 2.67307895 159.978536 2.74528947 160.272841 2.99839474L159.621825 4.00381579C159.438669 3.75992105 159.295763 3.68807895 159.021029 3.68807895 158.48227 3.68807895 157.881844 4.33797368 157.718628 5.0995L157.240798 7.33397368 156.111213 7.33397368 157.077582 2.78544737 158.187596 2.78544737ZM160.784349 6.61286316C160.784349 7.06012632 160.377417 7.46538947 159.939837 7.46538947 159.604174 7.46538947 159.380768 7.24249474 159.380768 6.90796842 159.380768 6.46070526 159.776622 6.06502105 160.22528 6.06502105 160.560573 6.06502105 160.784349 6.28828421 160.784349 6.61286316" fill="#5E7C80"/>
        <path d="M1.98554358,5.95372105 L2.67348624,5.95372105 L2.67348624,4.47856316 L3.00914908,4.47856316 L3.91606651,5.95372105 L4.73177523,5.95372105 L3.69893807,4.36140526 C4.16052064,4.14477368 4.3687867,3.83751053 4.3687867,3.40240526 C4.3687867,3.0233 4.17861468,2.70682632 3.87101606,2.56166842 C3.69007569,2.48024737 3.4995344,2.45298421 3.06380046,2.45298421 L1.98554358,2.45298421 L1.98554358,5.95372105 Z M2.67348624,3.96424737 L2.67348624,2.99640526 L2.9002156,2.98719474 L3.0818945,2.98719474 C3.48144037,2.98719474 3.64465596,3.11319474 3.64465596,3.42966842 C3.64465596,3.77377368 3.41792661,3.96424737 3.0002867,3.96424737 L2.94563532,3.96424737 L2.92754128,3.96424737 L2.67348624,3.96424737 Z M3.19082798,1.06072105 C1.40468807,1.06072105 0,2.45298421 0,4.20777368 C0,5.93566842 1.41391972,7.34598421 3.14540826,7.34598421 C4.87689679,7.34598421 6.28195413,5.93566842 6.28195413,4.20777368 C6.28195413,2.48945789 4.87689679,1.06072105 3.19082798,1.06072105 L3.19082798,1.06072105 Z M3.18159633,1.52087895 C4.59551606,1.52087895 5.7753211,2.74293158 5.7753211,4.20777368 C5.7753211,5.68219474 4.59551606,6.88582632 3.14540826,6.88582632 C1.69530046,6.88582632 0.506633028,5.67335263 0.506633028,4.20777368 C0.506633028,2.70682632 1.68606881,1.52087895 3.18159633,1.52087895 L3.18159633,1.52087895 Z" fill="#39748E"/>
      </g>
    </g>
  </g>
</svg>
</svg>
